<svg version="1.0" xmlns="http://www.w3.org/2000/svg"
 viewBox="28 30 168 168" preserveAspectRatio="xMidYMid meet">

<g transform="translate(0.000000,225.000000) scale(0.100000,-0.100000)"
fill="#2563eb" stroke="none">
<path d="M963 1646 c-170 -42 -336 -189 -388 -346 -15 -45 -19 -49 -63 -60 -169 -42 -285 -221 -253 -392 22 -120 90 -209 201 -262 l65 -31 527 -3 c581 -3 610 -1 713 58 71 41 140 117 178 198 30 63 32 74 32 177 0 103 -2 114 -32 178 -63 132 -181 224 -320 248 -59 10 -67 15 -135 84 -80 79 -178 134 -276 154 -69 14 -183 13 -249 -3z m274 -136 c86 -30 161 -90 229 -185 18 -26 28 -29 96 -36 91 -9 159 -40 212 -99 134 -149 94 -376 -85 -475 l-54 -30 -530 -3 c-369 -2 -542 0 -568 8 -49 14 -115 74 -138 125 -60 132 28 286 176 310 86 14 84 12 101 73 25 89 72 168 131 222 120 110 277 143 430 90z"/>
<path d="M947 1346 l-137 -73 132 -69 c72 -38 137 -70 144 -72 7 -2 75 29 150 69 l136 72 -64 34 c-76 41 -216 113 -220 113 -2 0 -65 -33 -141 -74z"/>
<path d="M780 1058 l0 -163 135 -72 c74 -40 137 -73 140 -73 2 0 5 72 7 160 l3 160 -60 31 c-33 18 -97 52 -142 76 l-83 45 0 -164z"/>
<path d="M1268 1147 l-138 -72 0 -162 c0 -90 2 -163 4 -163 3 0 66 32 140 71 l136 72 0 163 c0 90 -1 164 -2 163 -2 0 -65 -33 -140 -72z"/>
</g>
</svg>
